<svg width="262" height="227" viewBox="0 0 262 227" fill="none" xmlns="http://www.w3.org/2000/svg">
<g clip-path="url(#clip0_3_15)">
<path d="M161.096 0.00100708L130.871 52.352L100.647 0.00100708H-0.00488281L130.872 226.689L261.749 0.00100708H161.096Z" fill="#41B883"/>
<path d="M161.096 0.00100708L130.871 52.352L100.647 0.00100708H52.3459L130.872 136.011L209.398 0.00100708H161.096Z" fill="#34495E"/>
<g clip-path="url(#clip1_3_15)">
<path fill-rule="evenodd" clip-rule="evenodd" d="M130.115 148.365C130.231 148.249 130.369 148.156 130.521 148.093C130.673 148.03 130.836 147.998 131 147.998C131.164 147.998 131.327 148.03 131.479 148.093C131.631 148.156 131.769 148.249 131.885 148.365L136.885 153.365C137.001 153.481 137.093 153.619 137.156 153.771C137.219 153.923 137.252 154.086 137.252 154.25C137.252 154.414 137.219 154.577 137.156 154.729C137.093 154.881 137.001 155.019 136.885 155.135C136.769 155.251 136.631 155.343 136.479 155.406C136.327 155.469 136.164 155.502 136 155.502C135.836 155.502 135.673 155.469 135.521 155.406C135.369 155.343 135.231 155.251 135.115 155.135L132.25 152.268V161.75C132.25 162.082 132.118 162.399 131.884 162.634C131.65 162.868 131.332 163 131 163C130.669 163 130.351 162.868 130.116 162.634C129.882 162.399 129.75 162.082 129.75 161.75V152.268L126.885 155.135C126.65 155.37 126.332 155.502 126 155.502C125.668 155.502 125.35 155.37 125.115 155.135C124.88 154.9 124.748 154.582 124.748 154.25C124.748 153.918 124.88 153.6 125.115 153.365L130.115 148.365ZM131 173C131.332 173 131.65 173.132 131.884 173.366C132.118 173.601 132.25 173.918 132.25 174.25V183.733L135.115 180.865C135.35 180.63 135.668 180.498 136 180.498C136.332 180.498 136.65 180.63 136.885 180.865C137.12 181.1 137.252 181.418 137.252 181.75C137.252 182.082 137.12 182.4 136.885 182.635L131.885 187.635C131.769 187.751 131.631 187.844 131.479 187.907C131.327 187.97 131.164 188.002 131 188.002C130.836 188.002 130.673 187.97 130.521 187.907C130.369 187.844 130.231 187.751 130.115 187.635L125.115 182.635C124.999 182.519 124.907 182.381 124.844 182.229C124.781 182.077 124.748 181.914 124.748 181.75C124.748 181.586 124.781 181.423 124.844 181.271C124.907 181.119 124.999 180.981 125.115 180.865C125.35 180.63 125.668 180.498 126 180.498C126.164 180.498 126.327 180.531 126.479 180.594C126.631 180.657 126.769 180.749 126.885 180.865L129.75 183.733V174.25C129.75 173.918 129.882 173.601 130.116 173.366C130.351 173.132 130.669 173 131 173ZM111.365 168.885C111.249 168.769 111.156 168.631 111.093 168.479C111.03 168.327 110.998 168.164 110.998 168C110.998 167.836 111.03 167.673 111.093 167.521C111.156 167.369 111.249 167.231 111.365 167.115L116.365 162.115C116.6 161.88 116.918 161.748 117.25 161.748C117.582 161.748 117.9 161.88 118.135 162.115C118.37 162.35 118.502 162.668 118.502 163C118.502 163.332 118.37 163.65 118.135 163.885L115.268 166.75H124.75C125.082 166.75 125.399 166.882 125.634 167.116C125.868 167.351 126 167.668 126 168C126 168.332 125.868 168.649 125.634 168.884C125.399 169.118 125.082 169.25 124.75 169.25H115.268L118.135 172.115C118.37 172.35 118.502 172.668 118.502 173C118.502 173.332 118.37 173.65 118.135 173.885C117.9 174.12 117.582 174.252 117.25 174.252C116.918 174.252 116.6 174.12 116.365 173.885L111.365 168.885ZM136 168C136 167.668 136.132 167.351 136.366 167.116C136.601 166.882 136.919 166.75 137.25 166.75H146.733L143.865 163.885C143.749 163.769 143.657 163.631 143.594 163.479C143.531 163.327 143.498 163.164 143.498 163C143.498 162.836 143.531 162.673 143.594 162.521C143.657 162.369 143.749 162.231 143.865 162.115C144.1 161.88 144.418 161.748 144.75 161.748C144.914 161.748 145.077 161.781 145.229 161.844C145.381 161.907 145.519 161.999 145.635 162.115L150.635 167.115C150.751 167.231 150.844 167.369 150.907 167.521C150.97 167.673 151.002 167.836 151.002 168C151.002 168.164 150.97 168.327 150.907 168.479C150.844 168.631 150.751 168.769 150.635 168.885L145.635 173.885C145.519 174.001 145.381 174.093 145.229 174.156C145.077 174.219 144.914 174.252 144.75 174.252C144.586 174.252 144.423 174.219 144.271 174.156C144.119 174.093 143.981 174.001 143.865 173.885C143.749 173.769 143.657 173.631 143.594 173.479C143.531 173.327 143.498 173.164 143.498 173C143.498 172.836 143.531 172.673 143.594 172.521C143.657 172.369 143.749 172.231 143.865 172.115L146.733 169.25H137.25C136.919 169.25 136.601 169.118 136.366 168.884C136.132 168.649 136 168.332 136 168Z" fill="#34495E"/>
</g>
</g>
<defs>
<clipPath id="clip0_3_15">
<rect width="261.76" height="226.69" fill="white"/>
</clipPath>
<clipPath id="clip1_3_15">
<rect width="40" height="40" fill="white" transform="translate(111 148)"/>
</clipPath>
</defs>
</svg>
